<?xml version="1.0" encoding="UTF-8"?>
<svg id="Layer_1" data-name="Layer 1" xmlns="http://www.w3.org/2000/svg" width="512" height="512" viewBox="0 0 512 512">
  <rect x="6.17" y="6.17" width="499.66" height="499.66" rx="66.5" ry="66.5" fill="#e1251b"/>
  <g>
    <g>
      <path d="M424.48,385.83c4.29,10.22,21.34,22.75,15.29,34.49-4.33,8.37-36.37,20.38-46.53,28.49-9.18,7.34-15.51,17.68-25.85,24.2-18.2,11.47-44.29,12.72-53.51-10.29-7.23-18.08,6.16-42.75,9.36-61.06,3.59-20.58-1.96-48.96,17.68-62.24,3.8,28.69,21.92,34.31,44.96,18.3,2.59-1.79,5.04-5.78,7.83-6.3,6.09-1.16,14.74.18,19.56,4.31,7.54,6.43,7.5,21.27,11.21,30.11Z" fill="#fff"/>
      <path d="M209.32,444.38c1.9,17.26-8.4,29.54-25.52,31.03-27.24,2.39-41.14-12.43-65.61-17.12-10.87-2.07-34.04-2.01-42.12-7.92-11.09-8.12-1.36-23.15-.49-33.13,1.07-12.15-6.43-27.66,1.21-37.97,5.29-7.14,18.4-8.06,25.87-13.28,8.88-6.21,15.58-23.35,25.88-25.23,11.81-2.16,21.81,7.26,27.7,16.39,7.23,11.23,12.53,25.07,20,36.55,8.59,13.22,31.46,36.01,33.08,50.66Z" fill="#fff"/>
      <path d="M284.02,90.16c14.74,6.68,18.04,30,11.41,43.35-1.88,3.8-3.41,5.14-5.16,5.16-2.26,0-4.91-2.21-9.15-4.26,16.16-24.96-16.41-45.05-16.34-8.17l-10.74-3.06-1.1-.31c-2.84-17.68,10.67-41.95,31.08-32.71Z" fill="#fff"/>
      <path d="M234.68,107.95c.71,2.39,2.66,13.37,1.68,14.89-.27.43-8.1,2.86-9.64,3.41,1.78-26.07-21.61-18.66-13.59,3.26.58,1.59,3.79,5.51,3.73,6-.02.33-4.42,3.55-5.04,3.66-5.18.83-9.24-18.91-9.11-23.26.71-24.91,24.36-33.35,31.95-7.95Z" fill="#fff"/>
      <path d="M208.25,152.34c-.25,6.16,9.42,13.55,14.46,16.52,16.36,9.65,31.65,5.22,47.17-3.28,3.13-1.72,18.62-12.32,18.82-14.87.42-5.18-5.63,2.45-5.94,2.7-9.73,7.9-25.31,17.72-38.04,18.55-15.76,1.03-26.68-8.69-36.46-19.62ZM238.68,132.78c-8.62-1.78-11.48,7.63-2.12,2.72,1.56-.82,2.66.05,2.12-2.72ZM208.22,146.35c6.68-6.21,23.78-19.67,32.39-20.9,4.89-.69,8.93-.31,12.59.72,7.17,2.03,12.86,6.5,20.65,10.05,3.91,1.79,11.07,3.48,16.65,6.21,3.84,1.88,6.92,4.26,7.75,7.46,4.17,16.18-14.87,21.16-25.14,26.54-14.11,7.37-24,17.15-41.28,8.35-2.12-1.09-23.02-17.08-24.67-18.86-6.88-7.43-5.87-13.11,1.07-19.58ZM256.63,137.13c2.3.36,2.19-2.16,1.54-3.17-.49-.78-6.09-1.41-7.52-1.18-.94,2.48,4.56,4.13,5.98,4.35Z" fill="#fff"/>
      <path d="M367.02,297.53c2.35-26.59-10.56-49.92-28.26-68.51.83-1.5,3.46.47,4.27,1.16,4.71,3.91,12.32,14.71,15.74,20.14,11.96,19,18.44,40.59,14.17,63,12.3,6.85,30.88,14.15,27.81,31.54l-4.35-.02c3.84-8.66-5.42-15.13-11.96-19.04-10.05-6.03-32.86-16.07-40.48-2.37-1.72,3.12-1.58,7.1-2.95,9-1.27,1.78-7.81,4.22-10.45,6.96-14.38,14.85-10.13,50.88-16.05,70.97-.85,2.92-1.63,7.37-3.41,9.64-4.96,6.32-30.38,16.21-38.66,17.9-18.55,3.79-48.89,1.94-63.67-11.47-1.5-1.38-12.1-15.6-12.48-16.88-.65-2.14.43-1.36,1.63-1.56,26.83-4.71,6.43-31.3-4.91-41.93-17.75-16.63-41.97-22.1-47.57-49.23-5-24.18,9.24-54.11,21.66-74.52,1.18-1.96,2.66-6.54,5.23-6.2-14.62,29.02-32.37,60.81-13.04,92.44.34.27,1.41-.62,1.63-1.07.94-1.92,1.25-14.69,1.94-18.73,7.99-46.86,43.24-86.97,45.36-135.73,10.31,1.85,15.51,12.81,25.36,16.52,21.23,7.97,33.78-8.79,52.28-14.47l13.71-9.65c4.89,19.89,12.1,39.87,20.18,58.69,10.33,24.07,22.55,44.07,30.41,69.65,2.54,8.26.31,16.38,10.94,16.38,4.76-.02,5.54-8.62,5.91-12.59Z" fill="#fff"/>
      <path d="M281.12,134.41c4.24,2.05,6.88,4.26,9.15,4.26l.22,3.77c-5.58-2.74-12.73-4.42-16.65-6.21-7.79-3.55-13.48-8.02-20.65-10.05l.85-2.99,10.74,3.06c-.07-36.88,32.5-16.79,16.34,8.17Z"/>
      <path d="M258.17,133.96c.65,1.01.76,3.53-1.54,3.17-1.41-.22-6.92-1.87-5.98-4.35,1.43-.24,7.03.4,7.52,1.18Z"/>
      <path d="M244.72,171.96c12.73-.83,28.31-10.65,38.04-18.55.31-.25,6.36-7.88,5.94-2.7-.2,2.55-15.69,13.15-18.82,14.87-15.52,8.5-30.81,12.93-47.17,3.28-5.04-2.97-14.71-10.36-14.46-16.52,9.78,10.92,20.7,20.65,36.46,19.62Z"/>
      <path d="M238.68,132.78c.54,2.77-.56,1.9-2.12,2.72-9.36,4.91-6.5-4.49,2.12-2.72Z"/>
      <path d="M367.38,473.02c10.34-6.52,16.66-16.86,25.85-24.2,10.16-8.12,42.21-20.12,46.53-28.49,6.05-11.74-11-24.27-15.29-34.49-3.71-8.84-3.68-23.68-11.21-30.11-4.82-4.13-13.48-5.47-19.56-4.31-2.79.53-5.23,4.51-7.83,6.3-23.04,16.01-41.16,10.4-44.96-18.3-19.64,13.28-14.09,41.66-17.68,62.24-3.21,18.31-16.59,42.98-9.36,61.06,9.22,23,35.3,21.75,53.51,10.29ZM407.63,446.91c-25.74,15.11-47.44,56.61-84.86,35.2-9.11-5.22-12.64-12.92-17.34-21.81-18.78.6-36.41-4.75-55.3-3.41-12.34.89-24.36,5.38-36.83,5.6-13.98,24.11-40.05,22.28-63.27,13.98-8.1-2.88-15.49-7.61-23.75-9.96-15.07-4.31-49.76-3.08-58.36-15.6-7.88-11.47-.09-21.77,1.1-32.64,1.87-17.08-9.85-35.72,8.79-47.77,6.56-4.24,15.2-5.2,21.12-9.33,2.32-1.61,16.47-18.49,17.43-20.74.56-1.3-.13-22.33.83-28.44,7.59-48.71,38.24-75.63,62.13-114.06,27.26-43.84,7.93-76.93,16.38-121.76,6.1-32.5,27.9-48.98,60.17-51.84,49.52-4.38,72.24,23.42,77.42,69.85,4.08,36.3-5.98,59.78,15.65,93.11,28.64,44.16,70.46,77.26,65.94,137.43-.29,3.86-4.53,20.54-4.22,21.61.43,1.47,5.8,3.99,7.52,5.58,9.33,8.69,7.81,23.91,13.31,34.54,5.05,9.75,17.37,17.23,15.96,30.61-1.54,14.6-28.6,23.28-39.81,29.85ZM226.73,126.24c1.54-.54,9.36-2.97,9.64-3.41.98-1.52-.98-12.5-1.68-14.89-7.59-25.4-31.25-16.95-31.95,7.95-.13,4.35,3.93,24.09,9.11,23.26.62-.11,5.02-3.33,5.04-3.66.05-.49-3.15-4.4-3.73-6-8.02-21.92,15.36-29.33,13.59-3.26ZM231.82,184.79c17.28,8.8,27.17-.98,41.28-8.35,10.27-5.38,29.31-10.36,25.14-26.54-.83-3.21-3.91-5.58-7.75-7.46l-.22-3.77c1.76-.02,3.28-1.36,5.16-5.16,6.63-13.35,3.33-36.66-11.41-43.35-20.41-9.24-33.93,15.03-31.08,32.71l1.1.31-.85,2.99c-3.66-1.03-7.7-1.41-12.59-.72-8.6,1.23-25.7,14.69-32.39,20.9-6.94,6.47-7.95,12.15-1.07,19.58,1.65,1.78,22.55,17.77,24.67,18.86ZM233.59,189.53c-9.85-3.71-15.05-14.67-25.36-16.52-2.12,48.76-37.37,88.87-45.36,135.73-.69,4.04-1,16.81-1.94,18.73-.22.45-1.29,1.34-1.63,1.07-19.33-31.63-1.58-63.42,13.04-92.44-2.57-.34-4.06,4.24-5.23,6.2-12.43,20.41-26.66,50.34-21.66,74.52,5.6,27.13,29.82,32.61,47.57,49.23,11.34,10.63,31.74,37.22,4.91,41.93-1.2.2-2.28-.58-1.63,1.56.38,1.29,10.98,15.51,12.48,16.88,14.78,13.4,45.12,15.25,63.67,11.47,8.28-1.68,33.69-11.57,38.66-17.9,1.78-2.26,2.55-6.72,3.41-9.64,5.92-20.09,1.67-56.12,16.05-70.97,2.64-2.74,9.18-5.18,10.45-6.96,1.38-1.9,1.23-5.89,2.95-9,7.63-13.69,30.43-3.66,40.48,2.37,6.54,3.91,15.8,10.38,11.96,19.04l4.35.02c3.08-17.39-15.51-24.69-27.81-31.54,4.27-22.41-2.21-44-14.17-63-3.42-5.43-11.03-16.23-15.74-20.14-.82-.69-3.44-2.66-4.27-1.16,17.7,18.59,30.61,41.92,28.26,68.51-.36,3.97-1.14,12.57-5.91,12.59-10.63,0-8.4-8.12-10.94-16.38-7.86-25.58-20.09-45.57-30.41-69.65-8.08-18.82-15.29-38.8-20.18-58.69l-13.71,9.65c-18.49,5.69-31.05,22.44-52.28,14.47ZM183.8,475.41c17.12-1.49,27.42-13.77,25.52-31.03-1.61-14.65-24.49-37.44-33.08-50.66-7.46-11.48-12.77-25.32-20-36.55-5.89-9.13-15.89-18.55-27.7-16.39-10.31,1.88-17.01,19.02-25.88,25.23-7.46,5.22-20.58,6.14-25.87,13.28-7.64,10.31-.14,25.81-1.21,37.97-.87,9.98-10.6,25.02.49,33.13,8.08,5.91,31.25,5.85,42.12,7.92,24.47,4.69,38.37,19.51,65.61,17.12Z"/>
    </g>
    <polygon points="302.7 348.55 261.45 348.55 261.45 210.45 220.58 210.45 220.58 379.99 302.7 379.99 302.7 348.55" fill="#e1251b"/>
  </g>
</svg>